<svg xmlns="http://www.w3.org/2000/svg" viewBox="0 0 153.17 127.49"><defs><style>.cls-1{fill:#e9ebfb;}.cls-2{fill:#dfe0f3;}.cls-3{fill:#81b7fb;}.cls-4{fill:#70a8e9;}.cls-5{fill:#1d80ff;}</style></defs><title>Asset 1</title><g id="Layer_2" data-name="Layer 2"><g id="Layer_1-2" data-name="Layer 1"><path class="cls-1" d="M103.77,45.11C77.2,29.05,64.66-20.27,23.65,9.21s-24,90,15.29,104.67S128.81,120.25,143,93C167.35,46.56,121.59,55.88,103.77,45.11Z"/><path class="cls-2" d="M3.17,106.21S24,85.29,58.88,95.22s55.36,1.42,51-51.19c0,0,49,6.83,42.7,41.63C145,127.9,46.63,144,3.17,106.21Z"/><path class="cls-3" d="M77.65,71s42.21.15,33.44-43.3C111.09,27.7,66.81,32.08,77.65,71Z"/><path class="cls-3" d="M72.36,68.66s-42.73.15-33.85-43.83C38.5,24.83,83.34,29.27,72.36,68.66Z"/><path class="cls-4" d="M74.32,68.81S43.2,37.46,79.9,9.81C79.9,9.81,109.39,46.28,74.32,68.81Z"/><polygon class="cls-5" points="108.47 65.14 40.18 65.14 51.05 112.55 96.72 112.55 108.47 65.14"/></g></g></svg>