<?xml version="1.0" encoding="utf-8"?>
<!-- Generator: Adobe Illustrator 21.1.0, SVG Export Plug-In . SVG Version: 6.00 Build 0)  -->
<svg version="1.1" id="Layer_1" xmlns="http://www.w3.org/2000/svg" xmlns:xlink="http://www.w3.org/1999/xlink" x="0px" y="0px"
	 viewBox="0 0 435 338" style="enable-background:new 0 0 435 338;" xml:space="preserve">
<style type="text/css">
	.st0{fill:#FFFFFF;}
	.st1{fill:#5F6BDD;}
	.st2{fill:#2D2C56;}
	.st3{fill:#F7F7F7;}
	.st4{fill:#737AFB;}
	.st5{opacity:0.25;}
	.st6{fill:#D98E9D;}
	.st7{fill:#E0E4ED;}
	.st8{opacity:0.3;fill:#737AFB;}
	.st9{fill:#37354C;}
	.st10{fill:#EAD18C;}
	.st11{opacity:0.5;fill:url(#SVGID_1_);}
	.st12{fill:url(#SVGID_2_);}
	.st13{fill:#EEBCC5;}
	.st14{fill:#EFF2F7;}
	.st15{fill:#2D2B42;}
	.st16{fill:url(#SVGID_3_);}
	.st17{opacity:0.5;fill:url(#SVGID_4_);}
	.st18{fill:url(#SVGID_5_);}
	.st19{fill:url(#SVGID_6_);}
	.st20{fill:#9B5342;}
	.st21{fill:#BCBACE;}
	.st22{fill:url(#SVGID_7_);}
</style>
<g>
	<g>
		<path class="st0" d="M392.3-1H41.7C34.7-1,29,4.7,29,11.7v241.4h376V11.7C405,4.7,399.3-1,392.3-1z"/>
		<path class="st0" d="M430,248.8H4c-2.5,0-4.4,2-4.4,4.5v5.8c0,2.5,2,4.4,4.4,4.4h426c2.5,0,4.4-2,4.4-4.4v-5.8
			C434.5,250.8,432.5,248.8,430,248.8z"/>
		<g>
			<path class="st1" d="M391.8,4.4H42.2c-4.3,0-7.9,3.5-7.9,7.9v237.3h365.4V12.2C399.7,7.9,396.2,4.4,391.8,4.4z"/>
			<rect x="47.4" y="21.9" class="st2" width="339.1" height="219.2"/>
		</g>
		<circle class="st3" cx="217" cy="14.2" r="1.9"/>
		<path class="st4" d="M253.6,255.2h-73.1c-1,0-1.7,0.8-1.7,1.7c0,1,0.8,1.7,1.7,1.7h73.1c1,0,1.7-0.8,1.7-1.7
			C255.3,256,254.5,255.2,253.6,255.2z"/>
		<g class="st5">
			<rect x="90" y="34" class="st6" width="34" height="6"/>
			<rect x="59.3" y="34" class="st0" width="14" height="6"/>
			<rect x="59.3" y="45" class="st0" width="14" height="6"/>
			<rect x="59.3" y="58" class="st0" width="14" height="6"/>
			<rect x="59.3" y="71" class="st0" width="14" height="6"/>
			<rect x="59.3" y="84" class="st0" width="14" height="6"/>
			<rect x="59.3" y="97" class="st0" width="14" height="6"/>
			<rect x="131" y="34" class="st7" width="114" height="6"/>
			<g>
				<rect x="102" y="45" class="st6" width="34" height="6"/>
				<rect x="143" y="45" class="st7" width="114" height="6"/>
			</g>
			<g>
				<rect x="122" y="58" class="st6" width="34" height="6"/>
				<rect x="163" y="58" class="st7" width="114" height="6"/>
			</g>
			<g>
				<rect x="142" y="71" class="st6" width="34" height="6"/>
				<rect x="183" y="71" class="st7" width="114" height="6"/>
			</g>
			<g>
				<rect x="122" y="84" class="st6" width="34" height="6"/>
				<rect x="163" y="84" class="st7" width="174" height="6"/>
			</g>
			<g>
				<rect x="102" y="97" class="st6" width="34" height="6"/>
				<rect x="143" y="97" class="st7" width="74" height="6"/>
			</g>
		</g>
		<g class="st5">
			<rect x="90" y="114" class="st6" width="34" height="6"/>
			<rect x="59.3" y="114" class="st0" width="14" height="6"/>
			<rect x="59.3" y="125" class="st0" width="14" height="6"/>
			<rect x="59.3" y="138" class="st0" width="14" height="6"/>
			<rect x="59.3" y="151" class="st0" width="14" height="6"/>
			<rect x="59.3" y="164" class="st0" width="14" height="6"/>
			<rect x="59.3" y="177" class="st0" width="14" height="6"/>
			<rect x="131" y="114" class="st7" width="114" height="6"/>
			<g>
				<rect x="102" y="125" class="st6" width="34" height="6"/>
				<rect x="143" y="125" class="st7" width="114" height="6"/>
			</g>
			<g>
				<rect x="122" y="138" class="st6" width="34" height="6"/>
				<rect x="163" y="138" class="st7" width="114" height="6"/>
			</g>
			<rect x="90" y="194" class="st6" width="34" height="6"/>
			<rect x="59.3" y="194" class="st0" width="14" height="6"/>
			<rect x="59.3" y="205" class="st0" width="14" height="6"/>
			<rect x="59.3" y="218" class="st0" width="14" height="6"/>
			<rect x="131" y="194" class="st7" width="114" height="6"/>
			<g>
				<rect x="102" y="205" class="st6" width="34" height="6"/>
				<rect x="143" y="205" class="st7" width="114" height="6"/>
			</g>
			<g>
				<rect x="122" y="218" class="st6" width="34" height="6"/>
				<rect x="163" y="218" class="st7" width="114" height="6"/>
			</g>
			<g>
				<rect x="142" y="151" class="st6" width="34" height="6"/>
				<rect x="183" y="151" class="st7" width="174" height="6"/>
			</g>
			<g>
				<rect x="122" y="164" class="st6" width="34" height="6"/>
				<rect x="163" y="164" class="st7" width="114" height="6"/>
			</g>
			<g>
				<rect x="102" y="177" class="st6" width="34" height="6"/>
				<rect x="143" y="177" class="st7" width="114" height="6"/>
			</g>
		</g>
	</g>
	<rect x="93.5" y="248.8" class="st8" width="13.3" height="14.7"/>
	<rect x="119.4" y="248.8" class="st8" width="13.3" height="14.7"/>
	<rect x="317.6" y="248.8" class="st8" width="13.3" height="14.7"/>
	<rect x="340.6" y="248.8" class="st8" width="13.3" height="14.7"/>
	<g>
		<path class="st2" d="M113.4,307.4l0.1,7.2c0,0-0.9,4.6-1.6,9.5c-0.7,4.9-1.3,10.1-0.5,11.4c1.5,2.4,4.4,0,4.9-2.4
			c0.5-2.4,1.2-17.5,1.2-17.5l0.5-9.7L113.4,307.4z"/>
		<path class="st2" d="M106,306.4l1.1,6.5c0,0,2.2,17.7,1,20.4c-1.2,2.7-5.1,1.5-4.9-2.2c0.2-3.6-0.7-16.5-0.7-16.5l-2.2-7.8
			L106,306.4z"/>
		<g>
			<path class="st9" d="M109,227.4l0.5,8L89,245.3c-3.7,2-5.5,6.3-4.3,10.4l14.2,52.9l7.1-2.2l-6.3-48.7c-0.4-3,1.6-5.8,4.6-6.3
				l7.3-1.1l7.8-7.9l-9,8.1c-2.2,2-3.3,4.9-2.9,7.8l5.8,49.1l6.4,1.6l2.9-48.4c0.2-3.1,2.3-5.7,5.2-6.6l12.7-4
				c2-1.2,3.3-3.4,3.3-5.8l-0.5-17L109,227.4z"/>
			<path class="st10" d="M144.6,245.3l-3.4-66.1c0,0-14.1-0.8-18.2-0.8c-2.3,0-6.2,1.1-9.2,2.1c-2.9,0.9-5.3,0.8-6.7,3.5L84,228.2
				l14.2,1.3l4.7-5.4l-2.4-3.6l8.6-20.3l-1.7,36.9L144.6,245.3z"/>
			<linearGradient id="SVGID_1_" gradientUnits="userSpaceOnUse" x1="93.5171" y1="208.7523" x2="109.102" y2="208.7523">
				<stop  offset="0" style="stop-color:#EAD18C;stop-opacity:0"/>
				<stop  offset="1" style="stop-color:#524F63;stop-opacity:0.7"/>
			</linearGradient>
			<path class="st11" d="M108.8,192.1l-15.3,27.6l4.8,5.6c0,0,1.9,0.4,3.8-0.2l0.8-1l-2.4-3.6l8.6-20.3L108.8,192.1z"/>
			<path class="st0" d="M127.1,190c4.6,0,8.4-3.8,8.4-8.4c0-0.9-0.2-1.8-0.4-2.7c-4.3-0.2-9.8-0.5-12.1-0.5c-1,0-2.4,0.2-3.8,0.6
				c-0.3,0.8-0.4,1.7-0.4,2.6C118.7,186.2,122.5,190,127.1,190z"/>
			<linearGradient id="SVGID_2_" gradientUnits="userSpaceOnUse" x1="98.4238" y1="236.082" x2="183.9724" y2="202.2439">
				<stop  offset="0" style="stop-color:#EAD18C;stop-opacity:0"/>
				<stop  offset="1" style="stop-color:#524F63;stop-opacity:0.7"/>
			</linearGradient>
			<polygon class="st12" points="142.9,190.6 144.6,245.7 121.9,240.2 			"/>
			<path class="st13" d="M121.6,171.6c0.4,0.8,3.2,11.6,3.2,11.6s1,1.8,3.4,1.6c2.4-0.2,3.4-3.5,3.4-3.5l-4.1-13.6L121.6,171.6z"/>
			<path class="st13" d="M136.2,164.9c0,7.5-7.9,15.7-15.4,15.7s-11.6-8.3-11.6-15.7c0-7.5,6.1-13.5,13.5-13.5
				C130.1,151.4,136.2,157.4,136.2,164.9z"/>
			<circle class="st13" cx="122.4" cy="166" r="15.2"/>
			<g>
				<path class="st14" d="M111.6,177.3c-1.8,0-3.8-1.5-4.4-3.4c-0.4-1-0.3-2,0.2-2.6c0.4-0.6,1.1-0.9,2-0.9c1.8,0,3.8,1.5,4.4,3.4
					c0.4,1,0.3,2-0.2,2.6C113.1,177,112.4,177.3,111.6,177.3z M109.3,170.9c-0.7,0-1.2,0.3-1.5,0.7c-0.4,0.5-0.4,1.3-0.1,2.2
					c0.6,1.7,2.4,3,3.9,3c0.7,0,1.2-0.3,1.5-0.7c0.4-0.5,0.4-1.3,0.1-2.2C112.7,172.2,110.9,170.9,109.3,170.9z"/>
			</g>
			<g>
				<path class="st14" d="M120.6,177.3c-1.8,0-3.8-1.5-4.4-3.4c-0.4-1-0.3-2,0.2-2.6c0.4-0.6,1.1-0.9,2-0.9c1.8,0,3.8,1.5,4.4,3.4
					c0.4,1,0.3,2-0.2,2.6C122.1,177,121.4,177.3,120.6,177.3z M118.3,170.9c-0.7,0-1.2,0.3-1.5,0.7c-0.4,0.5-0.4,1.3-0.1,2.2
					c0.6,1.7,2.4,3,3.9,3c0.7,0,1.2-0.3,1.5-0.7c0.4-0.5,0.4-1.3,0.1-2.2C121.6,172.2,119.9,170.9,118.3,170.9z"/>
			</g>
			<ellipse transform="matrix(0.866 -0.5 0.5 0.866 -72.4158 79.7728)" class="st15" cx="112.7" cy="175" rx="0.6" ry="0.9"/>
			<ellipse transform="matrix(0.866 -0.5 0.5 0.866 -71.6741 83.2057)" class="st15" cx="119.4" cy="175.4" rx="0.6" ry="0.9"/>
		</g>
		<path class="st13" d="M125.2,239c-0.6-0.2-5.6-2.6-9.1-2.6c-3.5,0-7.9,3.7-7.9,3.7s-0.6,2,1.8,1.6c2.4-0.4-0.3,1.5-0.3,1.5
			s0.1,0.1,2.9,0.5c2.8,0.4,13.5-0.2,13.5-0.2L125.2,239z"/>
		<path class="st10" d="M141.2,179.2l1.9,43.5l-17.9,16.2l0.9,4.5l25.2-13.4c2.4-1.3,3.8-4,3.4-6.7l-4.6-33.3
			c-0.4-4.2-2.9-7.8-6.6-9.7L141.2,179.2z"/>
		<g>
			<path class="st0" d="M127.1,247.2H81.5v-3.3h45.5c0.9,0,1.7,0.7,1.7,1.7l0,0C128.7,246.4,128,247.2,127.1,247.2z"/>
			<path class="st0" d="M114.6,247.2H70.6c-1.9,0-3.6-1.3-4.1-3.2l-7.8-29.2c-0.7-2.7,1.3-5.4,4.1-5.4h38.3c1.9,0,3.6,1.3,4.1,3.2
				L114.6,247.2z"/>
			<linearGradient id="SVGID_3_" gradientUnits="userSpaceOnUse" x1="94.5729" y1="228.1068" x2="18.7021" y2="226.3145">
				<stop  offset="0" style="stop-color:#484EC2;stop-opacity:0"/>
				<stop  offset="1" style="stop-color:#444BCC;stop-opacity:0.5"/>
			</linearGradient>
			<path class="st16" d="M62.9,209.4c-2.8,0-4.9,2.7-4.1,5.4l7.8,29.2c0.2,0.9,0.8,1.7,1.4,2.2l26.7-36.8H62.9z"/>
			<path class="st4" d="M88.7,230.9c0.5,1.9-0.7,3.4-2.7,3.4c-2,0-3.9-1.5-4.4-3.4c-0.5-1.9,0.7-3.4,2.7-3.4
				C86.2,227.4,88.2,229,88.7,230.9z"/>
		</g>
		<path class="st4" d="M122.4,150.8c-7.8,0-14.2,5.9-15.1,13.5c2.6,2,6.1,2.8,9.3,2.3c3.8-0.7,7.3-3.3,8.9-6.8
			c-0.1,1.7-0.2,3.4,0,5.1c0.3,1.7,1,3.3,2.3,4.4c0.1-1.2,0.2-2.4,0.8-3.4c0.6-1,1.9-1.7,3-1.3c0.8,0.3,1.3,1.1,1.4,2
			c0.1,0.8-0.1,1.7-0.4,2.5c-0.5,1.2-1.2,2.4-2.1,3.4c1.8,0.3,3.7,0.5,5.5,0.3c1-2,1.5-4.2,1.5-6.6
			C137.6,157.6,130.8,150.8,122.4,150.8z"/>
		<circle class="st13" cx="130.8" cy="168.5" r="4.6"/>
		<polygon class="st13" points="106,306.4 106.8,311.2 102,312.8 100.6,308 		"/>
		<polygon class="st13" points="113.4,312.8 117.4,313.5 117.7,308.4 113.4,307.4 		"/>
	</g>
	<g>
		<path class="st2" d="M320,307.4l-0.1,7.2c0,0,0.9,4.6,1.6,9.5c0.7,4.9,1.3,10.1,0.5,11.4c-1.5,2.4-4.4,0-4.9-2.4
			c-0.5-2.4-1.2-17.5-1.2-17.5l-0.5-9.7L320,307.4z"/>
		<path class="st2" d="M327.4,306.4l-1.1,6.5c0,0-2.2,17.7-1,20.4c1.2,2.7,5.1,1.5,4.9-2.2c-0.2-3.6,0.7-16.5,0.7-16.5l2.2-7.8
			L327.4,306.4z"/>
		<g>
			<path class="st4" d="M324.4,227.4l-0.5,8l20.6,9.9c3.7,2,5.5,6.3,4.3,10.4l-14.2,52.9l-7.1-2.2l6.3-48.7c0.4-3-1.6-5.8-4.6-6.3
				l-7.3-1.1l-7.8-7.9l9,8.1c2.2,2,3.3,4.9,2.9,7.8l-5.8,49.1l-6.4,1.6l-2.9-48.4c-0.2-3.1-2.3-5.7-5.2-6.6l-12.7-4
				c-2-1.2-3.3-3.4-3.3-5.8l0.5-17L324.4,227.4z"/>
			<path class="st6" d="M288.8,245.3l3.4-66.1c0,0,14.1-0.8,18.2-0.8c2.3,0,6.2,1.1,9.2,2.1c2.9,0.9,5.3,0.8,6.7,3.5l23.1,44.2
				l-14.2,1.3l-4.7-5.4l2.4-3.6l-8.6-20.3L326,237L288.8,245.3z"/>
			
				<linearGradient id="SVGID_4_" gradientUnits="userSpaceOnUse" x1="285.5162" y1="208.7523" x2="301.1011" y2="208.7523" gradientTransform="matrix(-1 0 0 1 625.3727 0)">
				<stop  offset="0" style="stop-color:#D37897;stop-opacity:0"/>
				<stop  offset="0.8988" style="stop-color:#BC547C"/>
			</linearGradient>
			<path class="st17" d="M324.6,192.1l15.3,27.6l-4.8,5.6c0,0-1.9,0.4-3.8-0.2l-0.8-1l2.4-3.6l-8.6-20.3L324.6,192.1z"/>
			<path class="st0" d="M311,198.3c-4.6,0-13.2-12.1-13.2-16.8c0-0.9,0.2-1.8,0.4-2.7c4.3-0.2,9.8-0.5,12.1-0.5c1,0,2.4,0.2,3.8,0.6
				c0.3,0.8,0.4,1.7,0.4,2.6C314.7,186.2,315.6,198.3,311,198.3z"/>
			
				<linearGradient id="SVGID_5_" gradientUnits="userSpaceOnUse" x1="290.423" y1="236.0819" x2="375.9715" y2="202.2439" gradientTransform="matrix(-1 0 0 1 625.3727 0)">
				<stop  offset="0" style="stop-color:#D37897;stop-opacity:0"/>
				<stop  offset="0.8988" style="stop-color:#BC547C"/>
			</linearGradient>
			<polygon class="st18" points="290.5,190.6 288.8,245.7 311.5,240.2 			"/>
			<path class="st13" d="M311.8,171.6c-0.4,0.8-3.2,11.6-3.2,11.6s-1,1.8-3.4,1.6c-2.4-0.2-3.4-3.5-3.4-3.5l4.1-13.6L311.8,171.6z"
				/>
			<path class="st13" d="M297.2,164.9c0,7.5,7.9,15.7,15.4,15.7c7.5,0,11.6-8.3,11.6-15.7c0-7.5-6.1-13.5-13.5-13.5
				S297.2,157.4,297.2,164.9z"/>
			<circle class="st13" cx="311" cy="166" r="15.2"/>
			<ellipse transform="matrix(0.5 -0.866 0.866 0.5 9.6049 365.9074)" class="st15" cx="321.7" cy="174.6" rx="1.1" ry="0.8"/>
			<ellipse transform="matrix(0.5 -0.866 0.866 0.5 5.0589 359.7654)" class="st15" cx="314.1" cy="175.5" rx="1.2" ry="0.8"/>
		</g>
		<path class="st13" d="M308.2,239c0.6-0.2,5.6-2.6,9.1-2.6c3.5,0,7.9,3.7,7.9,3.7s0.6,2-1.8,1.6c-2.4-0.4,0.3,1.5,0.3,1.5
			s-0.1,0.1-2.9,0.5c-2.8,0.4-13.5-0.2-13.5-0.2L308.2,239z"/>
		<path class="st6" d="M292.1,179.2l-1.9,43.5l17.9,16.2l-0.9,4.5L282.1,230c-2.4-1.3-3.8-4-3.4-6.7l4.6-33.3
			c0.4-4.2,2.9-7.8,6.6-9.7L292.1,179.2z"/>
		<g>
			<path class="st0" d="M306.3,247.2h45.5v-3.3h-45.5c-0.9,0-1.7,0.7-1.7,1.7l0,0C304.7,246.4,305.4,247.2,306.3,247.2z"/>
			<path class="st0" d="M318.8,247.2h43.9c1.9,0,3.6-1.3,4.1-3.2l7.8-29.2c0.7-2.7-1.3-5.4-4.1-5.4h-38.3c-1.9,0-3.6,1.3-4.1,3.2
				L318.8,247.2z"/>
			
				<linearGradient id="SVGID_6_" gradientUnits="userSpaceOnUse" x1="286.5721" y1="228.1068" x2="210.7013" y2="226.3145" gradientTransform="matrix(-1 0 0 1 625.3727 0)">
				<stop  offset="0" style="stop-color:#484EC2;stop-opacity:0"/>
				<stop  offset="1" style="stop-color:#444BCC;stop-opacity:0.5"/>
			</linearGradient>
			<path class="st19" d="M370.5,209.4c2.8,0,4.9,2.7,4.1,5.4l-7.8,29.2c-0.2,0.9-0.8,1.7-1.4,2.2l-26.7-36.8H370.5z"/>
			<path class="st4" d="M344.7,230.9c-0.5,1.9,0.7,3.4,2.7,3.4c2,0,3.9-1.5,4.4-3.4c0.5-1.9-0.7-3.4-2.7-3.4
				C347.1,227.4,345.2,229,344.7,230.9z"/>
		</g>
		<path class="st4" d="M311,150.8c7.8,0,14.2,5.9,15.1,13.5c-2.6,2-6.1,2.8-9.3,2.3c-3.8-0.7-7.3-3.3-8.9-6.8c0.1,1.7,0.2,3.4,0,5.1
			c-0.3,1.7-1,3.3-2.3,4.4c-0.1-1.2-0.2-2.4-0.8-3.4c-0.6-1-1.9-1.7-3-1.3c-0.8,0.3-1.3,1.1-1.4,2c-0.1,0.8,0.1,1.7,0.4,2.5
			c0.5,1.2,1.2,2.4,2.1,3.4c-1.8,0.3-3.7,0.5-5.5,0.3c-1-2-1.5-4.2-1.5-6.6C295.8,157.6,302.6,150.8,311,150.8z"/>
		<circle class="st13" cx="302.6" cy="168.5" r="4.6"/>
		<polygon class="st13" points="327.4,306.4 326.5,311.2 331.4,312.8 332.7,308 		"/>
		<polygon class="st13" points="320,312.8 316,313.5 315.7,308.4 320,307.4 		"/>
	</g>
	<circle class="st4" cx="302.6" cy="149.4" r="9.8"/>
	<rect x="191.6" y="248.8" class="st8" width="13.3" height="14.7"/>
	<rect x="238" y="249.6" class="st8" width="13.3" height="13.9"/>
	<g>
		<path class="st9" d="M210.8,153l-5.4,6.6l-2.7,5.6l-2.5,7.1c0,0-4.4,4.1-4.1,4.1c0.2,0.1-0.3,5,0.2,5.7c0.5,0.7,5.4,6.6,5.4,6.6
			s4.8,3.1,6.7,3.5c1.9,0.4,11.5,4.6,11.5,4.6l5.9-5.6l-2.2-2.9c0,0,6.1-3.7,6.9-4.2c0.7-0.5,3.7-3.4,3.7-3.4s-0.1-2.6-0.6-4.2
			c-0.4-1.7-3.4-9.8-3.4-9.8s-3.9-5.6-4.4-6.6c-0.5-1-2.7-4.2-2.7-4.2L210.8,153z"/>
		<path class="st4" d="M234.6,231l-37.6,0.3l-0.3-38.3c0-2.3,1.8-4.1,4.1-4.1l29.5-0.2c2.3,0,4.1,1.8,4.1,4.1L234.6,231z"/>
		<path class="st9" d="M208.3,188.8c0,0,2.8,3.3,2.8,10.2s0.2,19.5,0.2,19.5l8.4,0v-19.9c0,0-0.7-6.8,4.7-12l-9.2,0.2L208.3,188.8z"
			/>
		<path class="st13" d="M215.2,196.8L215.2,196.8c-2.5,0-4.6-2-4.6-4.5l-0.1-13.9c0-0.3,0.3-0.6,0.6-0.6l7.9-0.1
			c0.3,0,0.6,0.3,0.6,0.6l0.1,13.9C219.7,194.7,217.7,196.8,215.2,196.8z"/>
		<path class="st20" d="M231.1,175.1c0-0.2,0-0.3,0-0.5c0-1.4-0.2-2.7-0.5-4v-1.8c0-8.7-7.1-15.9-15.9-15.9l0,0
			c-8.7,0-15.9,7.1-15.9,15.9v6.2H231.1z"/>
		<path class="st13" d="M229.4,170.7v-1.5c0-8.1-6.6-14.6-14.6-14.6l0,0c-8.1,0-14.6,6.6-14.6,14.6v6c0,0.4,0,0.8,0.1,1.2
			c1,7.3,7.2,12.9,14.7,12.9c8.2,0,14.9-6.7,14.9-14.9C229.9,173.1,229.7,171.9,229.4,170.7z"/>
		<circle class="st9" cx="209.1" cy="177" r="1.1"/>
		<circle class="st9" cx="219.8" cy="177" r="1.1"/>
		<circle class="st13" cx="200.2" cy="176.5" r="4.1"/>
		<circle class="st13" cx="229.4" cy="176.5" r="4.1"/>
		<path class="st21" d="M215.9,247.9l-18.5,8.7l3.4,56.3h-6.6l-13.4-57.7c-0.6-2.5,0.5-5.2,2.7-6.6l17.5-10.7L215.9,247.9z"/>
		<path class="st6" d="M200.1,173.8c-1.4,0.1-2.5,1.3-2.5,2.7c0,1.4,1.1,2.6,2.5,2.7V173.8z"/>
		<path class="st6" d="M229.1,173.8c1.4,0.1,2.5,1.3,2.5,2.7c0,1.4-1.1,2.6-2.5,2.7V173.8z"/>
		<rect x="211.3" y="200.3" class="st9" width="8.5" height="45.4"/>
		<path class="st9" d="M225,170.7c0.4,1.3,1,2.7,2.2,3.1c1,0.3,2-0.3,2.9-0.8c0.5-0.3,1-0.7,1-1.3c0.1-0.5-0.2-0.9-0.4-1.4
			c-0.9-1.6-1.8-3.3-3-4.6c-1.1-1.2-3.1-3.2-4.2-1.1C222.8,165.9,224.6,169.3,225,170.7z"/>
		<path class="st9" d="M226.6,161.3c-3.2-2.4-7.2-3.8-11.6-3.8l0.2-2.6c-4.3,0-8.5,4-11.7,6.4c2.8,3.2,6.9,6.2,11.6,6.2
			C219.6,167.5,223.8,164.5,226.6,161.3z"/>
		<path class="st4" d="M176.1,223.4c-0.6-0.8-0.7-1.8-0.5-2.8c2.1-8.5,17.3-28.4,17.9-29.2c1-1.3,6.2-2.4,6.2-2.4l0.6,13.7
			l-13.7,16.1c-0.9,1.1-1.1,2.5-0.5,3.8l10.8,22l-5.7,1.6L176.1,223.4z"/>
		<path class="st21" d="M225.4,237.9l17.5,10.7c2.2,1.4,3.3,4,2.7,6.6l-13.4,57.7h-6.6l3.4-56.3l-18.5-8.7L225.4,237.9z"/>
		<path class="st4" d="M252.7,223c0.4-0.8,0.6-1.7,0.4-2.5c-1.7-8.3-15.2-28.2-15.9-29.1c-1-1.3-6.2-2.4-6.2-2.4l-0.6,13.7
			l11.8,15.7c0.8,1.1,1,2.4,0.5,3.7l-8.9,22.5l5.7,1.6L252.7,223z"/>
		<path class="st9" d="M204.6,170.7c-0.4,1.3-1,2.7-2.2,3.1c-1,0.3-2-0.3-2.9-0.8c-0.5-0.3-1-0.7-1-1.3c-0.1-0.5,0.2-0.9,0.4-1.4
			c0.9-1.6,1.8-3.3,3-4.6c1.1-1.2,3.1-3.2,4.2-1.1C206.8,165.9,205,169.3,204.6,170.7z"/>
		<circle class="st13" cx="194.8" cy="244.7" r="4.8"/>
		<path class="st4" d="M228,157.4c-2-5.1-12.9-6.9-13-6.9v0l0,0l0,0v0c-0.1,0-11.1,1.8-13,6.9c-2,5.2-7.8,19.6-7.6,23.6
			c0.2,3.9,7.4,7.9,7.4,7.9h6.6c0,0-9.8-6.6-10.8-9.6c-1-2.9,2.7-6.1,3.7-6.9c4.1-7,8.1-11.3,10.7-13.7c1.7-1.6,4.4-1.6,6.1,0
			c2.6,2.4,6.6,6.7,10.7,13.7c1,0.8,4.6,4,3.7,6.9c-1,2.9-9.8,9.5-9.8,9.5l5.6,0c0,0,7.1-3.9,7.4-7.9
			C235.8,177,229.9,162.5,228,157.4z"/>
		
			<ellipse transform="matrix(6.008011e-02 -0.9982 0.9982 6.008011e-02 -22.666 466.5344)" class="st13" cx="236.4" cy="245.3" rx="4.8" ry="4.8"/>
		<path class="st4" d="M234.1,224v20.5c0,0-11.6,4.3-13.2,4.1c-1.7-0.2-1.7-18.2-1.7-18.2l2.1-5.5L234.1,224z"/>
		<path class="st4" d="M197,224v20.5c0,0,11.6,4.3,13.2,4.1c1.7-0.2,1.7-18.2,1.7-18.2l-2.1-5.5L197,224z"/>
		<path class="st2" d="M200.8,312.9l0.9,8.4c0,0-8.5,14.1-11.9,14.5c-3.4,0.3-1.9-5.6,0-8.3c1.9-2.7,5.7-8.4,5.7-8.4l1.4-6.1H200.8z
			"/>
		<path class="st2" d="M226.9,312.9l-0.9,8.4c0,0,8.5,14.1,11.9,14.5c3.4,0.3,1.9-5.6,0-8.3c-1.9-2.7-5.7-8.4-5.7-8.4l-1.4-6.1
			H226.9z"/>
		<g>
			<path class="st0" d="M194.2,250.3h43.3c1.6,0,3.1-1.1,3.4-2.7l3.7-15.7c0.5-3-1.8-5.8-4.9-5.8l-49.6,0.4c-3.1,0-5.4,2.8-4.8,5.9
				l5.5,15.6C191.4,249.4,192.7,250.3,194.2,250.3z"/>
			<linearGradient id="SVGID_7_" gradientUnits="userSpaceOnUse" x1="207.9719" y1="238.1621" x2="163.1298" y2="239.2213">
				<stop  offset="0" style="stop-color:#484EC2;stop-opacity:0"/>
				<stop  offset="1" style="stop-color:#444BCC;stop-opacity:0.5"/>
			</linearGradient>
			<path class="st22" d="M220.7,226.3l-30.6,0.2c-3.1,0-5.4,2.8-4.8,5.9l5.5,15.6c0.5,1.4,1.8,2.3,3.3,2.3h7.8L220.7,226.3z"/>
			<ellipse class="st4" cx="214.5" cy="240.3" rx="4.4" ry="4"/>
		</g>
	</g>
</g>
</svg>
