<?xml version="1.0" encoding="utf-8"?>
<!-- Generator: Adobe Illustrator 21.1.0, SVG Export Plug-In . SVG Version: 6.00 Build 0)  -->
<svg version="1.1" id="Layer_1" xmlns="http://www.w3.org/2000/svg" xmlns:xlink="http://www.w3.org/1999/xlink" x="0px" y="0px"
	 viewBox="0 0 260 200" style="enable-background:new 0 0 260 200;" xml:space="preserve">
<style type="text/css">
	.st0{fill:#E9EBFB;}
	.st1{clip-path:url(#SVGID_2_);fill:#DFE0F3;}
	.st2{fill:#C6CBE9;}
	.st3{fill:#0AD9A6;}
	.st4{fill:#FFFFFF;}
	.st5{fill:none;stroke:#E7E9F9;stroke-width:0.8987;stroke-linecap:round;stroke-linejoin:round;stroke-miterlimit:10;}
	.st6{fill:#E7E9F9;}
	.st7{fill:#C4C9E7;}
	.st8{fill:#393F5C;}
	.st9{fill:none;stroke:#393F5C;stroke-width:2.4961;stroke-miterlimit:10;}
	.st10{fill:#F0BC99;}
	.st11{fill:#E7AD87;}
	.st12{fill:#816EF5;}
	.st13{fill:#2B3047;}
	.st14{fill:#21283A;}
	.st15{fill:#6138F9;}
	.st16{fill:#EBB28B;}
	.st17{fill:#E9F1F4;}
	.st18{fill:#1F2E3B;}
	.st19{fill:none;stroke:#393F5C;stroke-width:2;stroke-miterlimit:10;}
</style>
<g>
	<g>
		<path class="st0" d="M176.9,79c-34.5-20.8-50.8-84.9-104-46.6C19.7,70.7,41.7,149.3,92.8,168.3c51,19,116.7,8.3,135.1-27
			C259.5,80.9,200.1,93,176.9,79z"/>
		<g>
			<defs>
				<path id="SVGID_1_" d="M176.9,79c-34.5-20.8-50.8-84.9-104-46.6C19.7,70.7,41.7,149.3,92.8,168.3c51,19,116.7,8.3,135.1-27
					C259.5,80.9,200.1,93,176.9,79z"/>
			</defs>
			<clipPath id="SVGID_2_">
				<use xlink:href="#SVGID_1_"  style="overflow:visible;"/>
			</clipPath>
			<path class="st1" d="M37,153.1c0,0,29.4-29.5,78.5-15.5c49.1,14,78,2,71.9-72.2c0,0,69,9.6,60.2,58.7
				C236.9,183.7,98.3,206.4,37,153.1z"/>
		</g>
		<g>
			<g>
				<path class="st2" d="M101.4,31.9v28.8c0,2.5-2,4.5-4.5,4.5H35.6c-2.5,0-4.5-2-4.5-4.5V31.9c0-2.5,2-4.5,4.5-4.5h61.3
					C99.4,27.4,101.4,29.5,101.4,31.9z"/>
			</g>
			<g>
				<path class="st3" d="M101.4,31.9v2.5H31.1v-2.5c0-2.5,2-4.5,4.5-4.5h61.3C99.4,27.4,101.4,29.5,101.4,31.9z"/>
				<g>
					<circle class="st4" cx="35.1" cy="31.3" r="0.9"/>
					<circle class="st4" cx="38.9" cy="31.3" r="0.9"/>
					<circle class="st4" cx="42.6" cy="31.3" r="0.9"/>
				</g>
			</g>
			<path class="st4" d="M54.8,51.7H40.7c-0.5,0-0.8-0.4-0.8-0.8V39.4c0-0.5,0.4-0.8,0.8-0.8h14.1c0.5,0,0.8,0.4,0.8,0.8v11.4
				C55.6,51.3,55.3,51.7,54.8,51.7z"/>
			<g>
				<path class="st4" d="M91.7,57.8H39.8c-0.5,0-1-0.4-1-1l0,0c0-0.5,0.4-1,1-1h51.9c0.5,0,1,0.4,1,1l0,0
					C92.7,57.4,92.3,57.8,91.7,57.8z"/>
			</g>
			<g>
				<path class="st4" d="M91.7,50.3H60.2c-0.5,0-1-0.4-1-1l0,0c0-0.5,0.4-1,1-1h31.5c0.5,0,1,0.4,1,1l0,0
					C92.7,49.9,92.3,50.3,91.7,50.3z"/>
			</g>
			<g>
				<path class="st4" d="M79.7,43.3H60.2c-0.5,0-1-0.4-1-1l0,0c0-0.5,0.4-1,1-1h19.5c0.5,0,1,0.4,1,1l0,0
					C80.7,42.8,80.3,43.3,79.7,43.3z"/>
			</g>
		</g>
		<path class="st5" d="M2.2,87.1c0,0,1.1-1.3,1.8-1.9c1.3-1.1,2.7-3,7.4-1.6c0.4,0.1,0.7,0.3,1.1,0.4c0.4,0.2,1.7,0.2,3-0.9
			c2.1-1.6,2.9-2.9,5.7-2.9c3.3,0,3.8,4.1,6.4,5.1c1.6,0.7,5.9,1.3,6.8,1.6L2.2,87.1z"/>
		<path class="st6" d="M176.6,28.2c0,0,2.3-2.6,3.6-3.8c2.5-2.1,5.3-5.9,14.5-3.1c0.7,0.2,1.4,0.5,2.1,0.8c0.8,0.3,3.3,0.3,5.8-1.7
			c4.1-3.2,5.6-5.6,11.2-5.7c6.5-0.1,7.5,8,12.5,10c3.2,1.3,11.6,2.6,13.4,3.2L176.6,28.2z"/>
		<g>
			<path class="st4" d="M126.7,52.3l-0.5-1.3l-0.5,1.3c-0.4,1.1-1.3,2.1-2.6,2.6l0,0l0,0c1.3,0.6,2.2,1.5,2.6,2.6l0.5,1.3l0.5-1.3
				c0.4-1.1,1.3-2.1,2.6-2.6l0,0l0,0C128.1,54.4,127.1,53.4,126.7,52.3z"/>
			<path class="st4" d="M84.6,128.6l-0.5-1.3l-0.5,1.3c-0.4,1.1-1.3,2.1-2.6,2.6l0,0l0,0c1.3,0.6,2.2,1.5,2.6,2.6l0.5,1.3l0.5-1.3
				c0.4-1.1,1.3-2.1,2.6-2.6l0,0l0,0C85.9,130.7,85,129.7,84.6,128.6z"/>
			<path class="st4" d="M210.8,120.5l-0.3-0.9l-0.3,0.9c-0.3,0.7-0.9,1.4-1.7,1.7l0,0l0,0c0.8,0.4,1.4,1,1.7,1.7l0.3,0.9l0.3-0.9
				c0.3-0.7,0.9-1.4,1.7-1.7l0,0l0,0C211.7,121.9,211.1,121.3,210.8,120.5z"/>
			<path class="st4" d="M64.3,76.3L64,75.4l-0.3,0.9c-0.3,0.7-0.9,1.4-1.7,1.7l0,0l0,0c0.8,0.4,1.4,1,1.7,1.7l0.3,0.9l0.3-0.9
				c0.3-0.7,0.9-1.4,1.7-1.7l0,0l0,0C65.1,77.6,64.5,77,64.3,76.3z"/>
		</g>
		<g>
			<path class="st3" d="M164,4.1h-29.2c-1.6,0-2.9,1.3-2.9,2.9v15.8c0,1.6,1.3,2.9,2.9,2.9h1.6v7.2l7.2-7.2H164
				c1.6,0,2.9-1.3,2.9-2.9V7C166.9,5.4,165.6,4.1,164,4.1z"/>
			<g>
				<path class="st4" d="M138.9,19.5h6.9c0.5,0,1,0.4,1,1l0,0c0,0.5-0.4,1-1,1h-6.9c-0.5,0-1-0.4-1-1l0,0
					C138,20,138.4,19.5,138.9,19.5z"/>
			</g>
			<g>
				<path class="st4" d="M138.9,14.7h12.7c0.5,0,1,0.4,1,1l0,0c0,0.5-0.4,1-1,1h-12.7c-0.5,0-1-0.4-1-1l0,0
					C138,15.2,138.4,14.7,138.9,14.7z"/>
			</g>
			<g>
				<path class="st4" d="M138.9,10h21.8c0.5,0,1,0.4,1,1l0,0c0,0.5-0.4,1-1,1h-21.8c-0.5,0-1-0.4-1-1l0,0
					C138,10.5,138.4,10,138.9,10z"/>
			</g>
		</g>
		<g>
			<path class="st7" d="M145.9,139.4h33.8c6.8,0,12.5-5.1,13.2-11.8l4.9-50.7H164l-0.7,29.4L145.9,139.4z"/>
			<g>
				<path class="st8" d="M145.9,138.9c8.7-0.3,17.4-0.5,26-0.6l6.5-0.1c0.5,0,1.1,0,1.6,0c0.5,0,1-0.1,1.5-0.1
					c1-0.1,1.9-0.4,2.8-0.8c3.6-1.5,6.4-4.9,7.1-8.8c0.2-0.9,0.3-2,0.4-3.1l0.3-3.2l0.6-6.5c0.4-4.3,0.9-8.6,1.3-13
					C195,94,196,85.4,197,76.7c0.1-0.4,0.4-0.7,0.9-0.7c0.4,0.1,0.7,0.4,0.7,0.8c-0.6,8.7-1.3,17.3-2.1,26c-0.4,4.3-0.7,8.7-1.2,13
					l-0.6,6.5l-0.3,3.2c-0.1,1.1-0.2,2.1-0.4,3.4c-0.9,4.7-4.2,8.9-8.7,10.6c-1.1,0.5-2.3,0.8-3.4,0.9c-0.6,0.1-1.2,0.1-1.8,0.1
					c-0.6,0-1.1,0-1.7,0l-6.5-0.1c-8.7-0.1-17.4-0.3-26-0.6c-0.3,0-0.5-0.3-0.5-0.6C145.4,139.1,145.6,138.9,145.9,138.9z"/>
			</g>
			<line class="st9" x1="165.2" y1="140.4" x2="165.2" y2="176.2"/>
		</g>
		<g>
			
				<rect x="62.7" y="106.8" transform="matrix(-1 -1.224647e-16 1.224647e-16 -1 234.3094 215.2731)" class="st8" width="108.9" height="1.7"/>
			<polygon class="st10" points="158.8,182.9 159.9,187.1 154.3,188.8 152.5,183.7 			"/>
			<polygon class="st10" points="124.8,179.9 124.8,183.3 129.8,183.3 130.3,179.9 			"/>
			<g>
				<g>
					<path class="st11" d="M163.1,83.7l-7.5,18.6l-0.2,0.4c-0.4,1.1-1.5,1.8-2.6,1.8l-21.4-0.2c-0.9,0-1.6-0.7-1.6-1.6
						c0-0.8,0.6-1.4,1.3-1.5l21.2-3.1l-2.8,2.2l5.1-19.4c0.6-2.4,3.1-3.8,5.5-3.2c2.4,0.6,3.8,3.1,3.2,5.5
						C163.2,83.3,163.1,83.5,163.1,83.7z"/>
					<path class="st11" d="M133.6,100.8l-7.3-0.2c-1.8,0-3.3,1.6-3.3,3.6v0h10.7L133.6,100.8z"/>
				</g>
				<g>
					<path class="st12" d="M151.2,85.9l11.7,2.9l1.9-10.4c0.5-2.8-1.4-5.5-4.3-5.9l0,0c-2.4-0.3-4.8,1-5.6,3.3L151.2,85.9z"/>
				</g>
			</g>
			<path class="st13" d="M163.3,106.2l-36.1,18.3c-3.4,1.7-5.4,5.2-5.2,9l2.7,46.4h5.5l7.5-49.6l28.1-19.7L163.3,106.2z"/>
			<path class="st14" d="M157,42.9c0,0,10-3.4,15.3,6.1c0.3,0.6,0.6,1.1,1.1,1.6c1.1,1.3,3.3,3.6,5.8,4.3c9.8,3,15.9,21.5-3.5,23.1
				c-24.3,2.1-31.2-2.7-27.8-12.4c2.5-6.9,0.3-11.8,0.3-11.8L157,42.9z"/>
			<path class="st15" d="M165,67.6l-5.2,2.3c-3.1,1.4-5.1,4.5-5,7.8c0.1,6.8,1.6,23.7,7.4,30.2h17.6c2.7-12,1.2-30.4,1.2-30.4
				c0.2-4.5-3.1-8.4-7.6-9L165,67.6z"/>
			<g>
				<g>
					<g>
						<path class="st16" d="M165.5,73.2L165.5,73.2c-1.8,0.2-3.5-1.1-3.7-2.9l-1.4-11.2l6.7-0.8l1.4,11.1
							C168.6,71.3,167.3,73,165.5,73.2z"/>
						<path class="st10" d="M159.9,67.5l-0.3,0c-4.5,0.6-8.5-2.6-9.1-7l-1.3-9.7l16.4-2.1l1.3,9.7C167.5,62.8,164.4,66.9,159.9,67.5
							z"/>
					</g>
					<path class="st14" d="M167.5,54.7l-1.4,2.9c0,0-1.9,1.6-2.4-2.4c-0.4-3.4-2.9-2.8-2.9-2.8s-8.5,6.5-13.6,2
						c-4-3.5,2.4-9.9,9.8-11.4l9.6,4.2L167.5,54.7z"/>
					
						<ellipse transform="matrix(0.9928 -0.1201 0.1201 0.9928 -5.672 20.57)" class="st10" cx="167.8" cy="57.3" rx="2.7" ry="2.7"/>
					<ellipse transform="matrix(0.9928 -0.12 0.12 0.9928 -5.8151 20.5695)" class="st4" cx="167.8" cy="58.5" rx="0.5" ry="0.5"/>
				</g>
				<path class="st4" d="M153.5,62.8l4.6-1c0,0,0.2,2-2.3,2.4C153.8,64.5,153.5,62.8,153.5,62.8z"/>
			</g>
			<path class="st8" d="M179.7,108h-17.6l-28.1,17c-3.3,2-4.6,6.1-3.1,9.7l21.6,49l6.2-0.7l-11.6-47.3c9.7-0.4,27.8-1.9,32.5-7.1
				C187.7,119.6,179.7,108,179.7,108z"/>
			<g>
				<path class="st3" d="M119.8,77.3l10,26.9H97.3L88,78.8c-0.3-0.8,0.3-1.6,1.1-1.6H119.8z"/>
				<path class="st3" d="M119.8,77.3h1.6c0.8,0,1.6,0.5,1.9,1.3l9.4,25.6h-2.9L119.8,77.3z"/>
				<path class="st3" d="M99.7,106.8h30.1v-2.6H97.4v0.2C97.4,105.7,98.4,106.8,99.7,106.8z"/>
				<path class="st3" d="M129.8,106.8h20.1c0.7,0,1.3-0.6,1.3-1.3l0,0c0-0.7-0.6-1.3-1.3-1.3h-20.1V106.8z"/>
				
					<ellipse transform="matrix(0.9493 -0.3143 0.3143 0.9493 -23.2656 38.8688)" class="st17" cx="108.9" cy="91.6" rx="2.9" ry="3.5"/>
			</g>
			<g>
				<g>
					<path class="st10" d="M176.8,83.2l-7.5,18.9l-0.2,0.4c-0.4,1.1-1.5,1.8-2.7,1.8l-21.4-0.1c-0.9,0-1.6-0.7-1.6-1.6
						c0-0.8,0.6-1.4,1.4-1.6l21.2-3.1l-2.8,2.2l5.1-19.7c0.6-2.4,3.1-3.9,5.5-3.3c2.4,0.6,3.9,3.1,3.3,5.5
						C176.9,82.8,176.9,83,176.8,83.2z"/>
					<path class="st10" d="M147.3,100.6l-7.3-0.2c-1.8,0-3.3,1.7-3.3,3.7l0,0h10.7L147.3,100.6z"/>
				</g>
				<g>
					<path class="st12" d="M164.9,85.5l11.7,2.9l1.9-10.6c0.5-2.9-1.4-5.6-4.3-6l0,0c-2.4-0.4-4.8,1-5.6,3.3L164.9,85.5z"/>
				</g>
			</g>
			<path class="st18" d="M150.7,184.8l-2.7,2.7l-6.1,1.5c-0.6,0.2-1.1,0.6-1.4,1.2l-0.3,0.9c-0.2,0.4,0.2,0.9,0.6,0.9l19.8-0.5
				c0.6,0,1.1-0.6,1.1-1.2l-1.6-5.6l-3,0.7c-1,0.3-2.1,0.2-3-0.3l-1.1-0.6C152.2,184.1,151.3,184.2,150.7,184.8z"/>
			<path class="st18" d="M122.3,180.9l-2.7,2.7l-6.1,1.5c-0.6,0.2-1.1,0.6-1.4,1.2l-0.3,0.9c-0.2,0.4,0.2,0.9,0.6,0.9l17.9-0.4
				c0.6,0,1.1-0.6,1.1-1.2l-0.5-5.7l-2.2,0.7c-1,0.3-2.1,0.2-3-0.3l-1.1-0.6C123.9,180.2,122.9,180.3,122.3,180.9z"/>
		</g>
		<g>
			<path class="st3" d="M206,65h50.3c1.7,0,3.1-1.4,3.1-3.1V47.7c0-1.7-1.4-3.1-3.1-3.1H206c-1.7,0-3.1,1.4-3.1,3.1v14.3
				C203,63.6,204.3,65,206,65z"/>
			<g>
				<path class="st4" d="M241.9,60.7h10.4c0.5,0,1-0.4,1-1v-9.8c0-0.5-0.4-1-1-1h-10.4c-0.5,0-1,0.4-1,1v9.8
					C240.9,60.2,241.3,60.7,241.9,60.7z"/>
				<g>
					<path class="st4" d="M209.9,51.4h26.8c0.5,0,0.8-0.4,0.8-0.8l0,0c0-0.5-0.4-0.8-0.8-0.8h-26.8c-0.5,0-0.8,0.4-0.8,0.8l0,0
						C209.1,51,209.5,51.4,209.9,51.4z"/>
					<g>
						<path class="st4" d="M227.4,55.6h9.4c0.5,0,0.8-0.4,0.8-0.8v0c0-0.5-0.4-0.8-0.8-0.8h-9.4c-0.5,0-0.8,0.4-0.8,0.8v0
							C226.6,55.3,227,55.6,227.4,55.6z"/>
						<path class="st4" d="M209.9,55.6h11.2c0.5,0,0.8-0.4,0.8-0.8v0c0-0.5-0.4-0.8-0.8-0.8h-11.2c-0.5,0-0.8,0.4-0.8,0.8v0
							C209.1,55.3,209.5,55.6,209.9,55.6z"/>
					</g>
					<path class="st4" d="M216.7,59.9h20.1c0.5,0,0.8-0.4,0.8-0.8l0,0c0-0.5-0.4-0.8-0.8-0.8h-20.1c-0.5,0-0.8,0.4-0.8,0.8l0,0
						C215.8,59.5,216.2,59.9,216.7,59.9z"/>
				</g>
			</g>
		</g>
	</g>
	<line class="st19" x1="113.6" y1="108.5" x2="113.6" y2="174.1"/>
</g>
</svg>
