<?xml version="1.0" encoding="utf-8"?>
<!-- Generator: Adobe Illustrator 21.1.0, SVG Export Plug-In . SVG Version: 6.00 Build 0)  -->
<svg version="1.1" id="Layer_1" xmlns="http://www.w3.org/2000/svg" xmlns:xlink="http://www.w3.org/1999/xlink" x="0px" y="0px"
	 viewBox="0 0 480 450" style="enable-background:new 0 0 480 450;" xml:space="preserve">
<style type="text/css">
	.st0{fill:#FDA226;}
	.st1{fill:#FAFAFA;}
	.st2{fill:#9B9B9B;}
	.st3{fill:#B3B3B3;}
	.st4{fill:#969696;}
	.st5{fill:#A2CAE3;}
	.st6{fill:#FFFFFF;}
	.st7{fill:#D3D2D1;}
	.st8{fill:#FBC39D;}
	.st9{fill:#1456A0;}
	.st10{fill:#F9AC7F;}
	.st11{fill:#1D1D1B;}
	.st12{fill:#565656;}
	.st13{fill:#ADADAD;}
	.st14{opacity:0.36;fill:url(#SVGID_1_);}
	.st15{fill:#EBE7E4;}
</style>
<g>
	<g>
		<g>
			<path class="st0" d="M436.4,285.1H408c-0.5,0-0.9,0.4-0.9,0.9v21.5c0,6.3,5.1,11.3,11.3,11.3h7.5c6.3,0,11.3-5.1,11.3-11.3V286
				C437.3,285.5,436.9,285.1,436.4,285.1z"/>
			<path class="st0" d="M433,315.2c6.4-3.6,17.4-14.3,15.5-21.8c-0.5-2-1.7-3.5-3.5-4.4c-4.2-2-10.3,0.4-11,0.7l2,4.2
				c1.5-0.6,5-1.6,6.7-0.8c0.3,0.2,0.7,0.4,0.9,1.3c1.1,4.4-7.5,13.6-13.3,16.8L433,315.2z"/>
		</g>
		<path class="st1" d="M229.6,302.7H80.7c-1.8,0-3.3-1.5-3.3-3.3v-86.3c0-1.8,1.5-3.3,3.3-3.3h148.9c1.8,0,3.3,1.5,3.3,3.3v86.3
			C232.9,301.2,231.4,302.7,229.6,302.7z"/>
		<path class="st2" d="M172.8,314.9c-0.6-1.5-0.8-3.1-0.8-4.7v-7.4h-16.7h-0.8h-15v7.4c0,1.6-0.2,3.2-0.8,4.7
			c-0.8,2.1-2.3,4.4-5,4.4h20.8h0.8h22.5C175,319.2,173.5,316.9,172.8,314.9z"/>
		<path class="st3" d="M473,329.2H5.7c-1.2,0-2.1-0.9-2.1-2.1v-5.8c0-1.2,0.9-2.1,2.1-2.1H473c1.2,0,2.1,0.9,2.1,2.1v5.8
			C475.1,328.2,474.2,329.2,473,329.2z"/>
		<rect x="84.3" y="329.2" class="st4" width="10.7" height="95.1"/>
		<rect x="377" y="329.2" class="st4" width="10.7" height="95.1"/>
		<path d="M229.6,287.9H80.7c-1.8,0-3.3-1.5-3.3-3.3v-86.3c0-1.8,1.5-3.3,3.3-3.3h148.9c1.8,0,3.3,1.5,3.3,3.3v86.3
			C232.9,286.4,231.4,287.9,229.6,287.9z"/>
		<rect x="83.4" y="200.1" class="st1" width="143.7" height="81.7"/>
		<path class="st1" d="M392.9,302.7H244c-1.8,0-3.3-1.5-3.3-3.3v-86.3c0-1.8,1.5-3.3,3.3-3.3h148.9c1.8,0,3.3,1.5,3.3,3.3v86.3
			C396.2,301.2,394.7,302.7,392.9,302.7z"/>
		<path class="st2" d="M336,314.9c-0.6-1.5-0.8-3.1-0.8-4.7v-7.4h-16.7h-0.8h-15v7.4c0,1.6-0.2,3.2-0.8,4.7c-0.8,2.1-2.3,4.4-5,4.4
			h20.8h0.8h22.5C338.3,319.2,336.8,316.9,336,314.9z"/>
		<path d="M392.9,287.9H244c-1.8,0-3.3-1.5-3.3-3.3v-86.3c0-1.8,1.5-3.3,3.3-3.3h148.9c1.8,0,3.3,1.5,3.3,3.3v86.3
			C396.2,286.4,394.7,287.9,392.9,287.9z"/>
		<rect x="246.7" y="200.1" class="st5" width="143.7" height="81.7"/>
		<path class="st6" d="M421.4,276.9c1-0.3,1.9-0.9,2.7-1.5c0.8-0.6,1.5-1.4,1.9-2.2c0.4-0.8,0.3-1.7-0.1-2.3c-0.5-0.7-1.2-1.2-2-1.7
			c-0.8-0.5-1.7-0.9-2.7-1.2c-0.4-0.2-1-0.4-1.6-0.6c-0.6-0.2-1.1-0.5-1.6-0.8c-2.1-1.2-4.1-2.9-5.6-4.9c-1.5-2-2.8-4.4-3.5-6.9
			c-0.7-2.6-1-5.4-0.5-8.4c0.3-1.5,0.7-3,1.5-4.5c0.8-1.5,1.9-3,3.4-4.2c1.4-1.2,3.2-2.1,5-2.7c1.8-0.6,3.6-0.8,5.2-0.8l1.8,0
			c4.1-0.1,7.5,3.2,7.6,7.4c0.1,4.1-3.2,7.5-7.4,7.6c-1.2,0-2.4-0.3-3.4-0.8c-0.9-0.4-1.4-0.7-1.9-0.7c-0.6,0-1.5,0.5-2.1,1.6
			c-0.7,1.1-1.1,2.6-1.1,4.3c-0.1,1.6,0.2,3.4,0.8,5c0.6,1.6,1.6,3.2,2.9,4.5c0.3,0.3,0.7,0.6,1,0.9c0.4,0.3,0.7,0.6,1.2,0.9
			c0.9,0.7,1.8,1.4,2.7,2.2c0.8,0.9,1.6,1.8,2.1,3.1c0.2,0.6,0.3,1.3,0.2,2c-0.1,0.7-0.4,1.3-0.7,1.8c-0.7,1-1.6,1.7-2.5,2.3
			c-0.9,0.6-1.9,1.1-2.9,1.5c-0.2,0.1-0.5,0-0.6-0.2C421.1,277.3,421.2,277,421.4,276.9C421.4,276.9,421.4,276.9,421.4,276.9
			L421.4,276.9z"/>
		<g>
			<path class="st1" d="M361.2,271.5h-83.2c-3.5,0-6.3-2.8-6.3-6.3V216c0-3.5,2.8-6.3,6.3-6.3h83.2c3.5,0,6.3,2.8,6.3,6.3v49.2
				C367.5,268.7,364.7,271.5,361.2,271.5z"/>
			<g>
				<rect x="305.6" y="234.9" class="st5" width="16.5" height="3.6"/>
				<rect x="328.7" y="251" class="st5" width="28.1" height="3.6"/>
				<rect x="342.7" y="259.1" class="st5" width="14" height="3.6"/>
				<rect x="305.6" y="251" class="st5" width="16.1" height="3.6"/>
				<rect x="305.6" y="243" class="st5" width="23.1" height="3.6"/>
				<rect x="305.6" y="259.1" class="st5" width="9.5" height="3.6"/>
				<polygon class="st5" points="321.7,262.6 336.2,262.6 336.2,262.6 336.2,259.1 321.7,259.1 				"/>
				<rect x="336.2" y="243" class="st5" width="13.7" height="3.6"/>
				<rect x="328.7" y="234.9" class="st5" width="14" height="3.6"/>
				<rect x="284.8" y="216.4" class="st5" width="5.3" height="3.6"/>
				<rect x="293.4" y="216.4" class="st5" width="5.3" height="3.6"/>
				<rect x="302" y="216.4" class="st5" width="5.3" height="3.6"/>
				<rect x="284.8" y="234.9" class="st5" width="6.5" height="3.6"/>
				<rect x="284.8" y="243" class="st5" width="6.5" height="3.6"/>
				<rect x="284.8" y="251" class="st5" width="6.5" height="3.6"/>
				<rect x="284.8" y="259.1" class="st5" width="6.5" height="3.6"/>
			</g>
		</g>
		<path d="M165.6,266.7c0.1,0.1,0.3,0,0.4-0.1l2.7-2.7l2,3.9c0.1,0.1,0.2,0.2,0.3,0.2c0.1,0,0.1,0,0.2,0l1.6-0.9
			c0.1,0,0.2-0.1,0.2-0.2c0-0.1,0-0.2,0-0.3l-1.9-3.6h3.6c0.2,0,0.3-0.1,0.4-0.3c0.1-0.2,0-0.3-0.1-0.4l-9.1-8.3
			c-0.1-0.1-0.3-0.1-0.4-0.1c-0.1,0.1-0.2,0.2-0.2,0.4v12.1C165.4,266.4,165.5,266.6,165.6,266.7z"/>
		<g>
			<rect x="97.3" y="217.8" class="st5" width="22.6" height="11.5"/>
			<rect x="125.5" y="217.8" class="st5" width="61.6" height="11.5"/>
			<rect x="97.3" y="234.9" class="st5" width="89.8" height="3.3"/>
			<rect x="97.3" y="243.9" class="st5" width="89.8" height="3.3"/>
			<rect x="97.3" y="252.8" class="st5" width="46.6" height="3.3"/>
			<rect x="97.3" y="261.8" class="st5" width="46.6" height="3.3"/>
		</g>
	</g>
	<g>
		<path class="st7" d="M390.8,135.3c-20.2,0-36.6-16.4-36.6-36.6c0-20.2,16.4-36.6,36.6-36.6c20.2,0,36.6,16.4,36.6,36.6
			C427.4,118.8,411,135.3,390.8,135.3z M390.8,67.3c-17.3,0-31.3,14-31.3,31.3s14.1,31.3,31.3,31.3c17.3,0,31.3-14.1,31.3-31.3
			S408.1,67.3,390.8,67.3z"/>
		<path class="st7" d="M391.7,100.8h-23.7c-0.7,0-1.3-0.6-1.3-1.3c0-0.7,0.6-1.3,1.3-1.3h22.4V74.7c0-0.7,0.6-1.3,1.3-1.3
			c0.7,0,1.3,0.6,1.3,1.3v24.8C393,100.2,392.4,100.8,391.7,100.8z"/>
	</g>
	<g>
		<g>
			<path class="st8" d="M250.4,314.8l-82.2,5.3c-7.1,0.5-13.2-4.9-13.6-12l0,0c-0.5-7.1,4.9-13.2,12-13.6l82.2-5.3
				c4.3-0.3,8,3,8.3,7.3l0.6,10C258,310.8,254.7,314.5,250.4,314.8z"/>
			<path class="st9" d="M197.9,266l-40.7,28.6c-5.4,3.8-6.8,11.2-3.2,16.7l0,0c2.7,4.2,7.8,6.3,12.7,5.3c17.9-3.6,59.1-12,58.7-13.4
				c-0.3-1.1-4.9-17.4-8.6-30.5C214.5,264.5,204.9,261.1,197.9,266z"/>
			<path class="st8" d="M225.6,314.8l82.2,5.3c7.1,0.5,13.2-4.9,13.6-12l0,0c0.5-7.1-4.9-13.2-12-13.6l-82.2-5.3
				c-4.3-0.3-8,3-8.3,7.3l-0.6,10C218,310.8,221.2,314.5,225.6,314.8z"/>
			<path class="st9" d="M278,266l40.7,28.6c5.4,3.8,6.8,11.2,3.2,16.7l0,0c-2.7,4.2-7.8,6.3-12.7,5.3c-17.9-3.6-59.1-12-58.7-13.4
				c0.3-1.1,4.9-17.4,8.6-30.5C261.5,264.5,271.1,261.1,278,266z"/>
			<g>
				<ellipse class="st10" cx="206.1" cy="221.8" rx="8" ry="8.3"/>
				<ellipse class="st10" cx="266.3" cy="221.8" rx="8" ry="8.3"/>
				<path class="st8" d="M233.7,266.1L233.7,266.1c0.8,0.1,1.6,0.2,2.5,0.2l0,0c2.5,0,5-0.3,7.4-0.9c0,0,0,0,0-0.1
					c13-3.4,22.7-15.7,22.7-30.3v-36.6c0-17.3-13.5-14.5-30-14.5l0,0c-16.6,0-30-2.7-30,14.5V235
					C206.1,251.4,218.3,264.8,233.7,266.1z"/>
				<path class="st11" d="M260.2,222.9v9.9h-10.7c0,0-2.6-7.1-13.3-7.1c-10.7,0-13.3,7.1-13.3,7.1h-10.7v-9.9c0-3.9-3.6-5.2-6.1-5.6
					V235c0,16.4,12.1,29.8,27.6,31.1l-0.1,0.1c0.8,0.1,1.7,0.1,2.5,0.1c0.8,0,1.7,0,2.5-0.1l-0.1-0.1c15.4-1.3,27.6-14.7,27.6-31.1
					v-17.6C263.8,217.8,260.2,219,260.2,222.9z"/>
				<path class="st11" d="M258.3,171.8c-8.2-1.2-21-1.3-30.4,6.4c-0.2,0.2-0.4,0.4-0.6,0.6h-7.4c-7.6,0-13.8,5.4-13.8,12v6.8v15.6
					v19c1.4,0,2.5-1.2,2.5-2.6v-26.7c0,0,0.5-8.5,8.2-8.5h17.5h0.2h19.9c8.2,0,9.2,7.4,9.3,8.4v26.8c0,1.5,1.1,2.6,2.5,2.6v-19
					v-15.6v-6.1l0.1-10.4C266.4,176.5,262.9,172.5,258.3,171.8z"/>
			</g>
			<rect x="207.7" y="190" class="st11" width="58.1" height="50.3"/>
		</g>
		<path class="st12" d="M252.5,423.2h-32.8c-22.9,0-41.5-20.1-41.5-44.8l10.4-89.7c3.6-23.9,25.7-39.3,48.2-39.3h0
			c22.7,0,45,15.7,48.3,40l9.1,89C294,403.2,275.5,423.2,252.5,423.2z"/>
		<path class="st13" d="M244,449.4h-15.4c-1.5,0-2.7-1.2-2.7-2.7V326.7c0-1.5,1.2-2.7,2.7-2.7H244c1.5,0,2.7,1.2,2.7,2.7v120.1
			C246.7,448.2,245.5,449.4,244,449.4z"/>
		<path d="M249.2,335.1h-26.7c-2.9,0-5.2-2.3-5.2-5.2v-11.8c0-2.9,2.3-5.2,5.2-5.2h26.7c2.9,0,5.2,2.3,5.2,5.2v11.8
			C254.4,332.7,252.1,335.1,249.2,335.1z"/>
	</g>
	<g>
		<linearGradient id="SVGID_1_" gradientUnits="userSpaceOnUse" x1="236.7512" y1="97.3689" x2="236.7512" y2="270.0477">
			<stop  offset="0" style="stop-color:#FFFFFF"/>
			<stop  offset="0.8606" style="stop-color:#FAFAFA;stop-opacity:0"/>
		</linearGradient>
		<polygon class="st14" points="200.6,97.4 125.6,268.7 347.9,270 277,97.4 		"/>
		<circle class="st6" cx="239" cy="97.1" r="10.4"/>
		<g>
			<path class="st0" d="M239,58.9c-21.1,0-38.2,17.1-38.2,38.2h76.5C277.2,76,260.1,58.9,239,58.9z"/>
		</g>
		<rect x="237.3" y="1.6" width="3.2" height="57.3"/>
	</g>
	<g>
		<path class="st7" d="M127.8,165.2H30.5V56.8h97.3V165.2z M34.4,161.3h89.5V60.6H34.4V161.3z"/>
		<rect x="47.1" y="75.7" class="st7" width="62.4" height="71"/>
		<path class="st15" d="M87.8,114.8H83v-6.5h4.8c4.1,0,7.5-3.3,7.5-7.4c0-1.6-0.5-3.1-1.4-4.3c-0.5-0.7-1.1-1.3-1.8-1.8
			c-3.3-2.4-8-1.6-10.4,1.7c-0.9,1.3-1.4,2.8-1.4,4.3v4.8h-6.5v-4.8c0-4.1-3.3-7.5-7.5-7.4c-1.5,0-3.1,0.5-4.3,1.4
			c-0.7,0.5-1.3,1.1-1.8,1.8c-2.4,3.4-1.6,8,1.8,10.4c1.3,0.9,2.8,1.4,4.3,1.4h4.8v6.5h-4.8c-4.1,0-7.5,3.3-7.4,7.5
			c0,1.5,0.5,3.1,1.4,4.3c0.5,0.7,1.1,1.3,1.8,1.8c3.4,2.4,8,1.6,10.4-1.8c0.9-1.3,1.4-2.8,1.4-4.3v-4.8h6.5v4.8
			c0,4.1,3.3,7.5,7.4,7.5c1.6,0,3.1-0.5,4.3-1.4c0.7-0.5,1.3-1.1,1.8-1.8c2.4-3.4,1.6-8-1.8-10.4C90.9,115.2,89.4,114.8,87.8,114.8z
			 M83,100.8c0-2.6,2.1-4.8,4.8-4.8c0.6,0,1.2,0.1,1.8,0.4c1.2,0.5,2.1,1.4,2.6,2.6c0.2,0.6,0.4,1.2,0.4,1.8c0,2.6-2.1,4.8-4.8,4.8
			H83V100.8z M71.2,122.2c0,2.6-2.1,4.8-4.8,4.8c-0.6,0-1.2-0.1-1.8-0.4c-1.2-0.5-2.1-1.4-2.6-2.6c-0.2-0.6-0.4-1.2-0.4-1.8
			c0-2.6,2.1-4.8,4.8-4.8h4.8V122.2z M71.2,105.6h-4.8c-2.6,0-4.8-2.1-4.8-4.8c0-0.6,0.1-1.2,0.4-1.8c0.5-1.2,1.4-2.1,2.6-2.6
			c0.6-0.2,1.2-0.4,1.8-0.4c2.6,0,4.8,2.1,4.8,4.8V105.6z M73.9,114.8v-6.5h6.5v6.5H73.9z M92.2,124c-0.5,1.2-1.4,2.1-2.6,2.6
			c-0.6,0.2-1.2,0.4-1.8,0.4c-2.6,0-4.8-2.1-4.8-4.8v-4.8h4.8c2.6,0,4.8,2.1,4.8,4.8C92.6,122.8,92.4,123.5,92.2,124z"/>
	</g>
</g>
</svg>
